<svg xmlns="http://www.w3.org/2000/svg">
  <symbol id="user" viewBox="0 0 24 24"><circle cx="12" cy="8" r="4"/><path d="M4 21a8 8 0 0 1 16 0"/></symbol>
  <symbol id="chevron-down" viewBox="0 0 24 24"><path d="m6 9 6 6 6-6"/></symbol>
  <symbol id="logout" viewBox="0 0 24 24"><path d="M10 17l5-5-5-5M15 12H3M15 4h4a2 2 0 0 1 2 2v12a2 2 0 0 1-2 2h-4"/></symbol>
  <symbol id="logout-all" viewBox="0 0 24 24"><path d="M8 17l5-5-5-5M13 12H2M15 4h3a2 2 0 0 1 2 2v4M20 17v4M18 19h4"/></symbol>
  <symbol id="device" viewBox="0 0 24 24"><rect x="3" y="4" width="18" height="13" rx="2"/><path d="M8 21h8M12 17v4"/></symbol>
  <symbol id="maintenance" viewBox="0 0 24 24"><path d="M14.7 6.3a4 4 0 0 0-5-5L12 3.6 8.4 7.2 6.1 4.9a4 4 0 0 0 5 5L20 18.8 17.8 21l-8.9-8.9"/></symbol>
  <symbol id="report" viewBox="0 0 24 24"><path d="M4 20V10M10 20V4M16 20v-7M22 20H2"/></symbol>
  <symbol id="settings" viewBox="0 0 24 24"><circle cx="12" cy="12" r="3"/><path d="M19.4 15a1.7 1.7 0 0 0 .3 1.9l.1.1-2.8 2.8-.1-.1a1.7 1.7 0 0 0-1.9-.3 1.7 1.7 0 0 0-1 1.6v.2h-4V21a1.7 1.7 0 0 0-1-1.6 1.7 1.7 0 0 0-1.9.3l-.1.1L4.2 17l.1-.1a1.7 1.7 0 0 0 .3-1.9A1.7 1.7 0 0 0 3 14H2.8v-4H3a1.7 1.7 0 0 0 1.6-1 1.7 1.7 0 0 0-.3-1.9L4.2 7 7 4.2l.1.1A1.7 1.7 0 0 0 9 4.6a1.7 1.7 0 0 0 1-1.6v-.2h4V3a1.7 1.7 0 0 0 1 1.6 1.7 1.7 0 0 0 1.9-.3l.1-.1L19.8 7l-.1.1a1.7 1.7 0 0 0-.3 1.9 1.7 1.7 0 0 0 1.6 1h.2v4H21a1.7 1.7 0 0 0-1.6 1Z"/></symbol>
  <symbol id="edit" viewBox="0 0 24 24"><path d="M12 20h9M16.5 3.5a2.1 2.1 0 0 1 3 3L8 18l-4 1 1-4Z"/></symbol>
  <symbol id="trash" viewBox="0 0 24 24"><path d="M3 6h18M8 6V3h8v3M19 6l-1 15H6L5 6M10 11v6M14 11v6"/></symbol>
  <symbol id="close" viewBox="0 0 24 24"><path d="M18 6 6 18M6 6l12 12"/></symbol>
  <symbol id="plus" viewBox="0 0 24 24"><path d="M12 5v14M5 12h14"/></symbol>
</svg>
